<?xml version="1.0" standalone="no"?><!DOCTYPE svg PUBLIC "-//W3C//DTD SVG 1.1//EN" "http://www.w3.org/Graphics/SVG/1.1/DTD/svg11.dtd"><svg t="1724919466853" class="icon" viewBox="0 0 1934 1024" version="1.1" xmlns="http://www.w3.org/2000/svg" p-id="5950" xmlns:xlink="http://www.w3.org/1999/xlink" width="377.734375" height="200"><path d="M1912.794 153.448c-4.172 4.096-95.346 88.747-339.968 107.71l-3.944 4.323h-489.017v-1.592a40.732 40.732 0 0 1-25.107-0.759l-59.013-20.707c-7.85 13.805-21.2 23.058-36.03 23.058h-43.728c-24.273 0-43.69-23.893-43.69-53.096V53.096C872.296 23.893 891.751 0 915.986 0h43.729c14.829 0 28.179 9.292 36.03 23.135l59.012-20.708c8.306-2.92 17.067-3.186 25.107-0.796V0h489.017l3.944 4.248c244.622 19 335.796 103.651 339.968 107.747l21.428 20.746-21.428 20.707z m-303.407 379.26c-4.172 4.096-95.346 88.746-339.968 107.71l-3.945 4.285H776.457v-1.593a40.732 40.732 0 0 1-25.106-0.759l-59.013-20.707c-7.85 13.805-21.2 23.059-36.03 23.059H612.58c-24.273 0-43.691-23.894-43.691-53.096V432.356c0-29.203 19.456-53.097 43.69-53.097h43.73c14.828 0 28.178 9.292 36.029 23.135l59.013-20.707c8.305-2.92 17.066-3.186 25.106-0.797v-1.63h489.017l3.945 4.247c244.622 19 335.796 103.652 339.968 107.748L1630.815 512l-21.428 20.708zM1381.83 911.967c-4.172 4.096-95.346 88.746-339.968 107.71l-3.944 4.285H548.902v-1.593a40.732 40.732 0 0 1-25.107-0.758l-59.013-20.708c-7.85 13.805-21.2 23.06-36.03 23.06h-43.728c-24.273 0.037-43.69-23.856-43.69-53.06V811.616c0-29.203 19.455-53.096 43.69-53.096h43.729c14.829 0 28.179 9.291 36.03 23.134l59.012-20.707c8.306-2.92 17.067-3.186 25.107-0.797v-1.63h489.017l3.944 4.247c244.622 19.001 335.796 103.652 339.968 107.748l21.428 20.745-21.428 20.708zM644.741 75.852V37.926h151.703v37.926H644.741z m-113.778 75.852v-37.926h227.556v37.926H530.963z m113.778 75.852V189.63h151.703v37.926H644.741zM341.333 455.11v-37.926h151.704v37.926H341.333z m-113.777 75.852v-37.926H455.11v37.926H227.556z m113.777 75.852v-37.926h151.704v37.926H341.333zM113.778 834.37v-37.926H265.48v37.926H113.778zM0 910.222v-37.926h227.556v37.926H0z m113.778 75.852v-37.926H265.48v37.926H113.778z" fill="#d81e06" p-id="5951"></path></svg>