<?xml version="1.0" encoding="utf-8"?>
<!-- Generator: Adobe Illustrator 26.2.1, SVG Export Plug-In . SVG Version: 6.00 Build 0)  -->
<svg version="1.1" id="图层_1" xmlns="http://www.w3.org/2000/svg" xmlns:xlink="http://www.w3.org/1999/xlink" x="0px" y="0px"
	 viewBox="0 0 77 77" style="enable-background:new 0 0 77 77;" xml:space="preserve">
<style type="text/css">
	.st0{clip-path:url(#SVGID_00000067920935144310255460000008243290734792346514_);}
	.st1{fill:#1776FF;}
</style>
<g>
	<g>
		<defs>
			
				<rect id="SVGID_1_" x="0.8" y="0.8" transform="matrix(1 -1.597798e-03 1.597798e-03 1 -6.098715e-02 6.108477e-02)" width="74.8" height="74.8"/>
		</defs>
		<clipPath id="SVGID_00000144322297968188905730000007793977708445997498_">
			<use xlink:href="#SVGID_1_"  style="overflow:visible;"/>
		</clipPath>
		<g style="clip-path:url(#SVGID_00000144322297968188905730000007793977708445997498_);">
			<path class="st1" d="M2.3,49c0.7-0.1,1.8-0.2,3.4-0.3c5.5-0.7,15.6-2,22.2-2.8l1.5-0.4h0.2l3.3-1c0.3,6.6,0.8,12,1.4,16.3v0.7
				l-1.7,0.7l-5.3,2.4c-0.1,0.1-0.2,0.1-0.2,0.2C27,64.9,27,65,27,65.1l-0.1,4v0.3c0,0.2,0.1,0.4,0.3,0.3l8.6-1.4
				c0.7,1.6,1.3,2.5,2.4,2.6h0.1c1,0,1.8-0.9,2.4-2.6l8.6,1.3h0.1c0,0,0.1,0,0.1-0.1l0.1-0.1v-0.1V69l-0.1-4c0-0.1,0-0.2-0.1-0.3
				c-0.1-0.1-0.1-0.2-0.2-0.2l-5.3-2.4l-1.7-0.7v-0.7c0.4-4.2,0.8-9.7,1.1-16.3l3.5,1h0.3l1.5,0.3c6.6,0.7,16.7,1.9,22.2,2.6
				c1.1,0.2,2.2,0.3,3.4,0.3c1.8,0.2,1.9-1.9,0.6-2.7c-0.2-0.1-4.3-2.1-9.3-4.8v-2.8c0-0.5-0.3-0.9-0.6-1.3
				c-0.4-0.3-0.9-0.5-1.4-0.5s-1,0.2-1.4,0.5s-0.6,0.8-0.6,1.3v0.6c-3-1.5-6.2-3.1-9-4.6v-3.2c0-0.3-0.1-0.5-0.2-0.7
				c-0.1-0.2-0.3-0.4-0.4-0.6s-0.4-0.3-0.7-0.4c-0.2-0.1-0.5-0.1-0.8-0.1s-0.5,0.1-0.8,0.1c-0.2,0.1-0.5,0.2-0.7,0.4
				s-0.3,0.4-0.4,0.6c-0.1,0.2-0.2,0.5-0.2,0.7v1.1c-1.8-0.9-3.3-1.7-4.3-2.3c0.1-12.6-0.9-22.3-4.6-24c-0.2-0.1-0.3-0.1-0.6-0.2
				c-0.2,0-0.3,0-0.5-0.1h-0.4c-0.2,0-0.3,0-0.5,0.1c-0.2,0-0.3,0.1-0.6,0.2c-3.7,1.7-4.7,11.4-4.3,24c-1,0.5-2.5,1.3-4.1,2.2V31
				c0-0.5-0.2-1-0.6-1.4S26.9,29,26.4,29s-1,0.2-1.4,0.6s-0.6,0.9-0.6,1.4v3.2c-2.8,1.5-5.9,3.1-9,4.7V38c0-0.5-0.2-1-0.6-1.4
				c-0.4-0.4-0.9-0.6-1.4-0.6s-1,0.2-1.4,0.6c-0.4,0.4-0.6,0.9-0.6,1.4v3.2c-5.1,2.7-9.2,4.9-9.3,5C0.3,47,0.4,49.2,2.3,49z"/>
		</g>
	</g>
</g>
</svg>
