<?xml version="1.0" standalone="no"?><!DOCTYPE svg PUBLIC "-//W3C//DTD SVG 1.1//EN" "http://www.w3.org/Graphics/SVG/1.1/DTD/svg11.dtd"><svg t="1722484798561" class="icon" viewBox="0 0 1024 1024" version="1.1" xmlns="http://www.w3.org/2000/svg" p-id="9960" xmlns:xlink="http://www.w3.org/1999/xlink" width="200" height="200"><path d="M512 953.1c-30.3 0-54.86-24.56-54.86-54.86V773.67c0-30.3 24.56-54.86 54.86-54.86s54.86 24.56 54.86 54.86v124.58c0 30.29-24.56 54.85-54.86 54.85z m54.86-377.91V450.61c0-30.3-24.56-54.86-54.86-54.86s-54.86 24.56-54.86 54.86v124.58c0 30.3 24.56 54.86 54.86 54.86s54.86-24.56 54.86-54.86z m0-323.06V127.55c0-30.3-24.56-54.86-54.86-54.86s-54.86 24.56-54.86 54.86v124.58c0 30.3 24.56 54.86 54.86 54.86s54.86-24.56 54.86-54.86z m338.02 700.93c-25.81 0-48.8-18.3-53.82-44.58L703.52 135.55c-5.68-29.76 13.84-58.49 43.6-64.17 29.76-5.69 58.49 13.84 64.17 43.6L958.82 887.9c5.68 29.76-13.84 58.49-43.6 64.17-3.47 0.67-6.93 0.99-10.34 0.99z m-785.76 0c25.81 0 48.8-18.3 53.82-44.58l147.53-772.92c5.68-29.76-13.84-58.49-43.6-64.17-29.76-5.69-58.49 13.84-64.17 43.6L65.18 887.91c-5.68 29.76 13.84 58.49 43.6 64.17 3.47 0.66 6.93 0.98 10.34 0.98z" p-id="9961" fill="#1775ff"></path></svg>