<?xml version="1.0" standalone="no"?><!DOCTYPE svg PUBLIC "-//W3C//DTD SVG 1.1//EN" "http://www.w3.org/Graphics/SVG/1.1/DTD/svg11.dtd"><svg t="1722484759546" class="icon" viewBox="0 0 1024 1024" version="1.1" xmlns="http://www.w3.org/2000/svg" p-id="8643" xmlns:xlink="http://www.w3.org/1999/xlink" width="200" height="200"><path d="M512.72 964.94666667C265.28 964.94666667 64 763.66666667 64 516.22666667S265.28 67.54666667 512.72 67.54666667s448.68 201.28 448.68 448.68-201.28 448.72-448.68 448.72z m0-856.6C287.8 108.34666667 104.8 291.30666667 104.8 516.22666667s183 407.88 407.88 407.88 407.88-182.96 407.88-407.88S737.6 108.34666667 512.72 108.34666667z" p-id="8644" fill="#1775ff"></path><path d="M680.52 453.10666667l-11.28-11.28 3.32-1.72c-0.68-1.32-16.64-32.08-35.6-51.04-18.76-18.76-52.52-37.92-53.92-38.76l-1.88 3.36-8.2-8.2-4.32 4.32-58.16-58.16-43.76 43.76 4.84 111.44-160.24 160.24c-47.28 47.28-47.84 137.24-47.84 141.04v14.44h14.44c3.8 0 93.72-0.56 141.04-47.84l160.24-160.24 111.44 4.84 43.76-43.76-58.16-58.16 4.28-4.28z m-36.24-4.56l-138.76 138.76c-6.56-11-16.92-26.8-28.48-38.32-10.72-10.72-26.2-21.44-37.84-28.96l138.96-138.96c10.6 6.56 27.8 17.84 38.36 28.44 11.8 11.8 22.84 30.32 27.76 39.04z m-159.92 159.88l-22.48 22.48c-6.56-11-16.92-26.8-28.44-38.32-10.72-10.72-26.2-21.44-37.88-28.92l22.68-22.68c10.6 6.56 27.8 17.84 38.36 28.44 11.8 11.76 22.88 30.32 27.76 39z m11.72-261.56l14.36-14.36 37.72 37.72-48.96 48.96-3.12-72.32z m-177.16 297.36c10.68 6.72 26.16 17.12 35.96 26.92 10.76 10.76 20.8 27 26.24 36.4-28.84 17.72-67 23.56-87.96 25.36 1.76-21.16 7.68-59.8 25.76-88.68z m84.84 44.84c-6.56-10.96-16.92-26.8-28.44-38.32-10.72-10.72-26.2-21.44-37.88-28.92l37.2-37.2c10.6 6.56 27.76 17.84 38.36 28.44 11.8 11.8 22.88 30.36 27.76 39.04l-37 36.96z m289.76-173.48l-14.36 14.36-72.32-3.16 48.96-48.96 37.72 37.76zM732.8 360.02666667l-43.6 43.6a14.412 14.412 0 0 0 0 20.4c2.84 2.8 6.52 4.24 10.2 4.24 3.68 0 7.4-1.4 10.2-4.24l43.6-43.6c5.64-5.64 5.64-14.76 0-20.4s-14.76-5.64-20.4 0zM645.6 380.42666667c2.8 2.8 6.52 4.24 10.2 4.24s7.4-1.4 10.2-4.24l87.2-87.2c5.64-5.64 5.64-14.76 0-20.4s-14.76-5.64-20.4 0l-87.2 87.2a14.412 14.412 0 0 0 0 20.4zM626.72 326.50666667c3.68 0 7.4-1.4 10.2-4.24l43.6-43.6c5.64-5.64 5.64-14.76 0-20.4s-14.76-5.64-20.4 0l-43.6 43.6a14.412 14.412 0 0 0 0 20.4c2.8 2.84 6.52 4.24 10.2 4.24z" p-id="8645" fill="#1775ff"></path></svg>