<?xml version="1.0" standalone="no"?><!DOCTYPE svg PUBLIC "-//W3C//DTD SVG 1.1//EN" "http://www.w3.org/Graphics/SVG/1.1/DTD/svg11.dtd"><svg t="1722484840329" class="icon" viewBox="0 0 1024 1024" version="1.1" xmlns="http://www.w3.org/2000/svg" p-id="11036" xmlns:xlink="http://www.w3.org/1999/xlink" width="200" height="200"><path d="M512 0C229.1712 0 0 229.1712 0 512s229.1712 512 512 512 512-229.1712 512-512S794.8288 0 512 0z m318.6688 830.6688c-26.624 26.624-56.1152 49.5616-88.064 68.608-0.6144 0-1.2288 0-1.8432 0.2048-1.024 0.2048-105.0624 15.7696-160.768-31.9488-23.7568-20.2752-35.2256-49.5616-35.2256-89.2928 0-0.8192 0-1.8432-0.2048-2.6624 94.8224-6.7584 165.0688-43.4176 209.5104-109.3632 36.864-55.0912 54.8864-128.4096 54.8864-224.4608 0-16.9984-13.7216-30.72-30.72-30.72h-112.64V292.864c0-16.9984-13.7216-30.72-30.72-30.72s-30.72 13.7216-30.72 30.72v118.1696h-184.32V292.864c0-16.9984-13.7216-30.72-30.72-30.72s-30.72 13.7216-30.72 30.72v118.1696h-112.64c-16.9984 0-30.72 13.7216-30.72 30.72 0 98.9184 16.384 170.1888 51.8144 224.0512C310.8864 733.184 383.7952 770.048 483.328 775.7824c0 0.8192-0.2048 1.4336-0.2048 2.2528 0 57.9584 19.2512 103.8336 56.9344 135.9872 21.2992 18.0224 46.2848 29.9008 71.4752 37.2736-32.5632 7.3728-65.7408 11.0592-99.7376 11.0592-60.8256 0-119.808-11.8784-175.3088-35.4304-53.6576-22.7328-101.7856-55.0912-143.1552-96.6656-41.3696-41.3696-73.9328-89.4976-96.6656-143.1552C73.3184 631.808 61.44 572.8256 61.44 512s11.8784-119.808 35.4304-175.3088c22.7328-53.6576 55.0912-101.7856 96.6656-143.1552 41.3696-41.3696 89.4976-73.9328 143.1552-96.6656C392.192 73.3184 451.1744 61.44 512 61.44s119.808 11.8784 175.3088 35.4304c53.6576 22.7328 101.7856 55.0912 143.1552 96.6656s73.9328 89.4976 96.6656 143.1552c23.552 55.5008 35.4304 114.4832 35.4304 175.3088s-11.8784 119.808-35.4304 175.3088c-22.7328 53.6576-55.0912 101.7856-96.4608 143.36z m-83.7632-358.1952c-3.2768 68.1984-17.6128 120.6272-43.8272 159.3344-37.6832 56.1152-100.1472 83.3536-191.0784 83.3536-93.7984 0-157.0816-27.2384-193.7408-83.1488-24.9856-38.0928-38.2976-89.4976-41.1648-159.744h469.8112z" fill="#1775ff" p-id="11037"></path></svg>