<?xml version="1.0" standalone="no"?><!DOCTYPE svg PUBLIC "-//W3C//DTD SVG 1.1//EN" "http://www.w3.org/Graphics/SVG/1.1/DTD/svg11.dtd"><svg t="1713777849047" class="icon" viewBox="0 0 1024 1024" version="1.1" xmlns="http://www.w3.org/2000/svg" p-id="17594" xmlns:xlink="http://www.w3.org/1999/xlink" width="200" height="200"><path d="M738.609819 691.211102c25.065194 8.184553 43.480439 27.111333 63.941823 42.45737 27.111333 20.972918 68.545634 18.926779 96.168501-2.046139 7.673019-5.62688 15.346037-12.27683 24.042125-15.346037 13.299899-4.603811 28.645936 2.557673 36.318955 14.322968 8.184553 13.299899 6.64995 29.669006-4.092276 40.411232-26.088264 26.599798-57.803408 41.434301-94.633898 43.991974-43.480439 3.069207-81.333998-10.742226-113.049142-40.411232-25.576729-24.042125-54.7342-33.249748-87.983948-20.972918-12.788365 4.603811-24.042125 13.811434-34.784351 22.507522-30.692075 26.599798-65.476426 40.411232-105.887658 38.876628-34.784351-1.023069-65.476426-13.299899-92.076225-36.318955-13.811434-12.27683-27.622867-24.042125-46.038112-28.134402-25.576729-5.62688-49.10732-2.046138-69.568703 14.834503-19.949849 16.369107-38.876628 33.249748-63.941823 41.434301C189.733214 824.721627 138.579756 813.979401 94.587783 773.056634c-13.811434-12.788365-14.834503-33.249748-3.069208-46.549646 12.27683-14.322968 32.738213-15.857572 47.572716-3.069208 20.461383 18.415245 43.991974 28.645936 71.103307 23.530591 13.299899-2.557673 27.111333-8.184553 37.853559-16.369107 19.438314-14.322968 36.83049-31.715144 61.384149-39.899697-3.580742-11.765295-7.161484-22.507522-10.230691-33.761282-29.669006-111.003004 32.738213-232.236699 140.672009-272.647932 13.299899-5.115346 27.111333-8.696088 40.922767-11.765295 8.184553-1.534604 9.719157-4.603811 9.719157-12.27683V39.516046c0-20.972918 8.184553-33.761282 25.065194-38.365093 6.138415-1.534604 13.299899-1.534604 19.438314 0 79.28786 18.415245 158.064185 36.83049 236.840511 55.245734 36.83049 8.696088 73.149445 16.880641 109.979935 25.576729 25.576729 6.138415 36.83049 29.157471 25.576729 50.130389-5.62688 10.230692-15.346037 14.834503-26.599799 17.903711-85.426275 22.507522-170.341015 45.015043-255.76729 68.034099-19.949849 5.115346-39.899697 10.742226-59.849546 15.857572-6.64995 1.534604-8.184553 4.603811-8.184553 10.742226 0.511535 38.876628 0.511535 77.241722 0 116.11835 0 7.673019 2.557673 10.742226 10.230692 12.27683 96.168501 19.438314 168.294877 92.076224 185.175518 187.733191 7.161484 39.899697 4.092277 79.799395-9.719157 118.164488l-3.069208 9.207622c-1.023069 0.511535-1.023069 1.534604-1.023069 3.069208z m-50.641923-106.910728c-2.557673-9.207622-7.161484-27.111333-11.765296-45.015043-1.534604-6.64995-5.62688-8.184553-12.27683-8.184553-94.122363 0.511535-187.733191 0-281.855553 0-6.138415 0-9.719157 1.534604-11.765296 7.673019-18.415245 47.572716-16.369107 93.610828 6.64995 139.137405 1.534604 2.557673 5.115346 5.62688 7.673019 6.138415 30.692075 5.62688 56.780338 19.949849 79.799394 40.411232 36.83049 33.249748 80.822464 33.249748 115.606815 1.023069 23.019056-20.972918 49.10732-35.807421 80.310929-41.434301 3.069207-0.511535 6.64995-2.557673 7.673019-4.603811 14.834503-27.111333 20.972918-55.757269 19.949849-95.145432z m-128.906715-507.953838v90.030086c59.338011-15.857572 117.652953-31.203609 175.967896-47.061181v-2.046138c-58.314942-13.299899-116.629884-27.111333-175.967896-40.922767z m52.688062 387.231677c-48.084251-36.83049-131.975922-35.295886-176.47943 0h176.47943zM361.097299 889.174984c37.342024 0.511535 70.591772 12.788365 98.726174 38.365094 20.972918 19.438314 43.991974 31.715144 73.660979 28.134402 16.880641-2.046138 31.715144-8.696088 43.991974-19.949849 17.90371-16.880641 37.342024-31.203609 61.38415-38.365094 56.780338-17.392176 107.933796-6.64995 151.414236 34.272817 14.322968 13.299899 14.834503 34.272817 2.557673 47.572716-12.788365 13.811434-32.226679 14.834503-47.572716 2.046139-15.346037-13.299899-31.715144-22.507522-52.688062-24.042126-20.972918-1.534604-40.411232 3.580742-56.780339 17.392176-19.438314 16.369107-38.365094 32.738213-63.430288 40.922766-54.222666 17.392176-103.84152 8.184553-147.321959-29.157471-17.392176-14.834503-34.272817-28.134402-58.314942-29.157471-20.461383-1.023069-38.876628 3.580742-55.245734 15.857572-3.580742 3.069207-7.161484 6.138415-10.742227 8.696088-14.834503 11.765295-34.272817 10.742226-46.549646-3.069207-12.27683-13.299899-11.253761-33.249748 2.046138-46.549647 28.645936-28.134402 63.430288-42.45737 104.864589-42.968905z" p-id="17595" fill="#1776FF"></path></svg>