<?xml version="1.0" standalone="no"?><!DOCTYPE svg PUBLIC "-//W3C//DTD SVG 1.1//EN" "http://www.w3.org/Graphics/SVG/1.1/DTD/svg11.dtd"><svg t="1713777814983" class="icon" viewBox="0 0 1024 1024" version="1.1" xmlns="http://www.w3.org/2000/svg" p-id="16518" xmlns:xlink="http://www.w3.org/1999/xlink" width="200" height="200"><path d="M998.479872 348.16l-97.28 97.28 20.48 15.36c10.24 10.24 0 20.48 0 35.84 0 66.56-122.88 266.24-353.28 276.48V450.56h194.56V337.92h-199.68V307.2c56.32-25.6 87.04-81.92 87.04-138.24C650.319872 87.04 588.879872 40.96 517.199872 40.96 430.159872 35.84 368.719872 102.4 368.719872 174.08c0 56.32 30.72 97.28 76.8 128v30.72H250.959872v112.64h199.68v327.68c-199.68-5.12-348.16-204.8-348.16-271.36 0-10.24 0-25.6 10.24-35.84l25.6-15.36-112.64-102.4c-10.24 435.2 337.92 542.72 424.96 563.2l61.44 71.68 56.32-61.44c117.76-25.6 435.2-138.24 430.08-573.44zM501.839872 112.64c30.72 0 56.32 25.6 56.32 56.32 5.12 25.6-20.48 66.56-56.32 66.56-25.6 0-56.32-25.6-56.32-61.44 0-30.72 25.6-61.44 56.32-61.44z" p-id="16519" fill="#1776FF"></path></svg>