<?xml version="1.0" standalone="no"?><!DOCTYPE svg PUBLIC "-//W3C//DTD SVG 1.1//EN" "http://www.w3.org/Graphics/SVG/1.1/DTD/svg11.dtd"><svg t="1722485065912" class="icon" viewBox="0 0 1280 1024" version="1.1" xmlns="http://www.w3.org/2000/svg" p-id="17712" xmlns:xlink="http://www.w3.org/1999/xlink" width="250" height="200"><path d="M1255.409736 638.380042H340.401451V425.617773h63.865974a21.44405 21.44405 0 0 0 20.69817-16.129655l42.51516-170.247109a21.350815 21.350815 0 0 0-15.47701-26.1058 24.2411 24.2411 0 0 0-5.22116-0.652645H340.401451V106.381134a21.25758 21.25758 0 0 0-21.25758-21.257579h-63.77274V0h-42.608395v85.123555H149.176467a21.25758 21.25758 0 0 0-21.350815 21.257579v106.754075H21.258047A21.350815 21.350815 0 0 0 0.000467 234.113084a19.39288 19.39288 0 0 0 0.652645 5.127925l42.51516 170.247109a21.44405 21.44405 0 0 0 20.69817 16.129655h63.77274v212.762269H21.258047A21.25758 21.25758 0 0 0 0.000467 659.637622v340.400983a21.350815 21.350815 0 0 0 21.25758 21.350815h1234.151689a21.350815 21.350815 0 0 0 21.25758-21.350815V659.637622a21.25758 21.25758 0 0 0-21.25758-21.25758zM340.401451 255.370664H419.557965l-31.886369 127.638714h-47.270145zM170.247577 127.731949H298.352466v85.40326H170.247577z m0 127.638715H298.352466v127.638714H170.247577z m0 170.247109H298.352466v212.762269H170.247577z m-89.785305-42.608395L48.575902 255.370664h79.06328v127.638714z m494.145498 595.771647H127.639182v-85.030319h446.875353z m0-127.638714H127.639182v-85.123555h446.875353z m574.514067 127.638714H702.153249v-85.030319h446.875353z m0-127.638714H702.153249v-85.123555h446.875353z m85.030319 127.638714h-42.608394V744.574706a21.25758 21.25758 0 0 0-21.25758-21.25758H680.615964a21.25758 21.25758 0 0 0-20.977875 21.25758v234.019849h-42.608395v-234.019849a21.25758 21.25758 0 0 0-21.257579-21.25758H106.381602a21.25758 21.25758 0 0 0-21.25758 21.25758v234.019849H42.515627V680.895202h1191.543294z" p-id="17713" fill="#1775ff"></path><path d="M1235.270976 139.945734l-123.163434-46.617499a63.306565 63.306565 0 0 0-55.941 5.314395L716.511439 306.370209a21.350815 21.350815 0 0 1-24.334335-1.49176l-58.73805-47.083675a63.679505 63.679505 0 0 0-75.333879-3.263225l-5.314395 3.54293a64.238915 64.238915 0 0 0-20.418465 83.911499l68.900664 124.095785a63.77274 63.77274 0 0 0 80.275335 27.9705l193.369389-79.529455 43.63398 65.2645a21.164345 21.164345 0 0 0 24.42757 8.39115l63.959209-21.164345a21.25758 21.25758 0 0 0 13.892015-25.266685l-19.952289-79.43622 236.350723-97.896749a63.58627 63.58627 0 0 0 39.438405-58.92452v-5.873805a64.238915 64.238915 0 0 0-41.39634-59.763635z m-157.473914-3.076755a21.25758 21.25758 0 0 1 20.13876-1.8647l79.06328 33.93754-102.5585 38.506055-25.54639-51.186015z m-132.859874 305.904034l-44.286625-66.38332-19.486115-29.182555 62.65392-37.294 11.281435 45.31221 19.486115 77.94446zM1221.378961 225.255759l-230.943093 95.379404-12.30702-49.134844a21.25758 21.25758 0 0 0-25.826095-15.47701 23.49522 23.49522 0 0 0-5.78057 2.330875l-106.381135 63.865974a21.25758 21.25758 0 0 0-7.27233 29.182555l0.55941 0.839115 17.434945 26.199035-185.630884 77.105345a21.44405 21.44405 0 0 1-26.758445-9.3235l-68.900664-124.37549a21.44405 21.44405 0 0 1 6.806155-27.970499l5.314395-3.54293a20.977875 20.977875 0 0 1 25.080214 1.11882l58.831285 46.617499a64.14568 64.14568 0 0 0 73.09624 4.66175l272.619138-166.610944 33.5646 67.1292a21.164345 21.164345 0 0 0 26.47874 10.349085l161.762724-60.60275a20.88464 20.88464 0 0 1 0.93235 6.33998v5.873805a21.07111 21.07111 0 0 1-12.67996 20.045525z" p-id="17714" fill="#1775ff"></path></svg>