<?xml version="1.0" standalone="no"?><!DOCTYPE svg PUBLIC "-//W3C//DTD SVG 1.1//EN" "http://www.w3.org/Graphics/SVG/1.1/DTD/svg11.dtd"><svg t="1722484889910" class="icon" viewBox="0 0 1199 1024" version="1.1" xmlns="http://www.w3.org/2000/svg" p-id="12502" xmlns:xlink="http://www.w3.org/1999/xlink" width="234.1796875" height="200"><path d="M1104.902935 605.616253c2.311512 41.607223-32.361174 76.27991-73.968398 78.591422-41.607223 2.311512-76.27991-32.361174-78.591422-73.968397v-4.623025c0-41.607223 76.27991-173.363431 76.27991-173.363431s76.27991 131.756208 76.27991 173.363431z m-797.471784-141.002258h279.693002v-208.036117H307.431151v208.036117z m665.715576-124.82167h-85.52596v459.990971h-154.871331v71.656885H785.914221v64.722347H108.641084v-64.722347H161.805869V110.952596h568.632054v624.108352h90.148984V275.069977h182.609481l50.853273 64.722348-50.853273 39.295711-30.049661-39.295711z m-307.431151 531.647856V175.674944h-439.187359v695.765237h439.187359z" fill="#1775ff" p-id="12503"></path></svg>