<?xml version="1.0" encoding="utf-8"?>
<!-- Generator: Adobe Illustrator 26.2.1, SVG Export Plug-In . SVG Version: 6.00 Build 0)  -->
<svg version="1.1" id="图层_1" xmlns="http://www.w3.org/2000/svg" xmlns:xlink="http://www.w3.org/1999/xlink" x="0px" y="0px"
	 viewBox="0 0 63 65" style="enable-background:new 0 0 63 65;" xml:space="preserve">
<style type="text/css">
	.st0{fill:#1776FF;}
</style>
<g>
	<path class="st0" d="M32,2.9c0,0-10.8,11.9-10.9,19l-0.3,33.3c0,0.5,0.2,0.9,0.5,1.3l1.9,2.5c0.3,0.4,0.7,0.7,1.2,0.9
		c0.5,0.2,1.1,0.3,1.7,0.3l11.1,0.1c0.9-0.3,1.7-0.8,2.3-1.3c0.6-0.7,1.2-1.4,1.8-2.1c0.3-0.5,0.5-1,0.5-1.5L42,22
		C42.1,15.4,32,2.9,32,2.9z"/>
</g>
</svg>
