<?xml version="1.0" standalone="no"?><!DOCTYPE svg PUBLIC "-//W3C//DTD SVG 1.1//EN" "http://www.w3.org/Graphics/SVG/1.1/DTD/svg11.dtd"><svg t="1724981632416" class="icon" viewBox="0 0 1024 1024" version="1.1" xmlns="http://www.w3.org/2000/svg" p-id="5755" xmlns:xlink="http://www.w3.org/1999/xlink" width="200" height="200"><path d="M797.3888 405.2992l120.2176-75.264-135.7824-86.3232-135.8848 86.3232 119.3984 74.752v91.648H487.936a552.96 552.96 0 0 1 18.3296-122.88 582.3488 582.3488 0 0 1 101.0688-207.6672l-12.288-10.24-12.288-10.24a606.208 606.208 0 0 0-107.2128 218.5216 584.2944 584.2944 0 0 0-19.3536 132.5056H276.48V460.8l-170.496 52.224L276.48 564.6336v-36.1472h179.712a544.4608 544.4608 0 0 0 6.0416 69.4272 647.9872 647.9872 0 0 0 119.808 280.9856L608.0512 860.16c-77.0048-107.008-117.1456-218.0096-120.32-331.6736h277.6064v96.8704H649.5232l72.704 125.0304h186.2656V625.3568H797.3888z m-15.5648-123.4944l75.6736 48.0256-75.6736 47.3088L706.56 329.8304z m94.6176 436.5312H740.6592l-35.328-61.44h171.1104z" p-id="5756" fill="#1775ff"></path></svg>