<?xml version="1.0" standalone="no"?><!DOCTYPE svg PUBLIC "-//W3C//DTD SVG 1.1//EN" "http://www.w3.org/Graphics/SVG/1.1/DTD/svg11.dtd"><svg t="1722484988291" class="icon" viewBox="0 0 1194 1024" version="1.1" xmlns="http://www.w3.org/2000/svg" p-id="15271" xmlns:xlink="http://www.w3.org/1999/xlink" width="233.203125" height="200"><path d="M739.328 256c15.872 0 28.16-12.8 28.16-28.16V142.336c0-15.872-12.8-28.16-28.16-28.16s-28.16 12.8-28.16 28.16v85.504c0 15.36 12.288 28.16 28.16 28.16zM71.168 712.192c-7.68 0-14.336 6.656-14.336 14.336 0 7.68 6.656 14.336 14.336 14.336h256c7.68 0 14.336-6.656 14.336-14.336 0-7.68-6.656-14.336-14.336-14.336h-256m0-56.832h256c38.912 0 71.168 31.744 71.168 71.168 0 38.912-31.744 71.168-71.168 71.168h-256c-38.912 0-71.168-31.744-71.168-71.168S31.744 655.36 71.168 655.36z" fill="#1775ff" p-id="15272"></path><path d="M583.168 56.832c-7.68 0-14.336 6.656-14.336 14.336 0 7.68 6.656 14.336 14.336 14.336H896c7.68 0 14.336-6.656 14.336-14.336s-6.656-14.336-14.336-14.336h-312.832m0-56.832H896c38.912 0 71.168 31.744 71.168 71.168s-31.744 71.168-71.168 71.168h-312.832c-38.912 0-71.168-31.744-71.168-71.168S543.744 0 583.168 0z m355.328 341.504v227.84h199.168V341.504h-199.168m-65.024-56.832h264.192c31.232 0 56.832 25.6 56.832 56.832v227.328c0 31.232-25.6 56.832-56.832 56.832h-264.192c5.632-14.336 8.192-29.696 8.192-45.056V329.216c0-15.36-2.56-30.208-8.192-44.544zM260.608 341.504c-43.008 0-82.944 16.896-113.664 47.104-30.72 30.72-47.104 70.656-47.104 113.664v152.064h170.496v-4.608c0-44.544 35.84-80.384 80.384-80.384h189.952V341.504H260.608m0-56.832h345.088c-5.632 14.336-8.192 29.696-8.192 45.056v251.392c0 15.872 2.56 31.232 8.192 45.056H350.72c-13.312 0-23.552 10.752-23.552 23.552v31.232c0 16.384-13.312 30.208-30.208 30.208H76.8c-18.944 0-33.792-15.36-33.792-33.792V502.272c-0.512-119.808 97.792-217.6 217.6-217.6z" fill="#1775ff" p-id="15273"></path><path d="M670.72 256c-30.72 0-57.856 19.456-68.608 48.128v1.024c-3.072 7.68-4.608 15.872-4.608 24.576v251.392c0 8.704 1.536 16.896 4.608 24.576v1.024c10.752 28.672 37.888 48.128 68.608 48.128h137.728c30.72 0 57.856-19.456 68.608-48.128v-1.024c3.072-7.68 4.608-15.872 4.608-24.576V329.216c0-8.704-1.536-16.896-4.608-24.576v-1.024c-10.752-28.672-37.888-48.128-68.608-48.128L670.72 256m0-56.832h137.728c55.808 0 103.936 35.84 121.856 85.504 5.632 13.824 8.192 29.184 8.192 45.056v251.392c0 15.36-2.56 30.72-8.192 45.056-18.432 49.664-66.048 85.504-121.856 85.504H670.72c-55.808 0-103.936-35.84-121.856-85.504-5.632-14.336-8.192-29.696-8.192-45.056V329.216c0-15.872 2.56-31.232 8.192-45.056 17.92-49.664 66.048-84.992 121.856-84.992z m-414.72 768c15.872 0 28.16-12.8 28.16-28.16v-85.504c0-15.872-12.8-28.16-28.16-28.16s-28.16 12.8-28.16 28.16v85.504c0 15.36 12.288 28.16 28.16 28.16zM170.496 1024c15.872 0 28.16-12.8 28.16-28.16v-56.832c0-15.872-12.8-28.16-28.16-28.16s-28.16 12.8-28.16 28.16v56.832c0 15.36 12.8 28.16 28.16 28.16z m-84.992-56.832c15.872 0 28.16-12.8 28.16-28.16v-56.832c0-15.872-12.8-28.16-28.16-28.16s-28.16 12.8-28.16 28.16v56.832c-0.512 15.36 12.288 28.16 28.16 28.16z" fill="#1775ff" p-id="15274"></path></svg>