<?xml version="1.0" standalone="no"?><!DOCTYPE svg PUBLIC "-//W3C//DTD SVG 1.1//EN" "http://www.w3.org/Graphics/SVG/1.1/DTD/svg11.dtd"><svg t="1722484712509" class="icon" viewBox="0 0 1024 1024" version="1.1" xmlns="http://www.w3.org/2000/svg" p-id="7520" xmlns:xlink="http://www.w3.org/1999/xlink" width="200" height="200"><path d="M571.0848 961.2288L512 1024l-65.6384-69.12C354.5088 929.792-6.5024 823.0912 0.1024 383.488l118.1184 100.5056-26.2656 18.8416c-13.1072 12.544-13.1072 25.088-13.1072 37.6832 6.5536 69.0688 183.808 281.2928 393.7792 293.888V455.0656H236.3392c-21.76 0-39.424-16.9984-39.424-37.888v-37.9904c0-20.9408 17.664-37.888 39.424-37.888H472.576V220.5696c-45.7728-15.6672-78.7456-57.344-78.7456-106.8032C393.8816 50.944 446.7712 0 512 0c65.28 0 118.1696 50.944 118.1696 113.7664 0 49.4592-32.9728 91.136-78.7456 106.8032v120.7808h236.288c21.76 0 39.424 16.9472 39.424 37.888v37.9392c0 20.992-17.664 37.888-39.424 37.888H551.424v379.2896c242.7904-12.544 387.1744-224.768 387.1744-293.888 0-18.7904 13.1072-31.3856 0-37.632l-19.712-18.8416 105.0112-100.5056c6.5536 439.552-328.1408 552.6016-452.8128 577.7408zM512 75.776c-21.76 0-39.3728 16.9984-39.3728 37.9392 0 20.992 17.6128 37.888 39.424 37.888 21.7088 0 39.3728-16.896 39.3728-37.888 0-20.9408-17.664-37.888-39.424-37.888z" fill="#1775ff" p-id="7521"></path></svg>