<?xml version="1.0" standalone="no"?><!DOCTYPE svg PUBLIC "-//W3C//DTD SVG 1.1//EN" "http://www.w3.org/Graphics/SVG/1.1/DTD/svg11.dtd"><svg t="1724986663142" class="icon" viewBox="0 0 1024 1024" version="1.1" xmlns="http://www.w3.org/2000/svg" p-id="29206" xmlns:xlink="http://www.w3.org/1999/xlink" width="200" height="200"><path d="M856.259048 18.529524h-682.666667c-80.457143 0-146.285714 65.828571-146.285714 146.285714v682.666667c0 80.457143 65.828571 146.285714 146.285714 146.285714h682.666667c80.457143 0 146.285714-65.828571 146.285714-146.285714v-682.666667c0-80.457143-65.828571-146.285714-146.285714-146.285714z m-34.133334 492.495238s-303.786667 93.135238-465.188571 138.483809c-11.702857 2.925714-23.405714 3.413333-33.645714 1.950477-19.504762-3.413333-31.207619-5.851429-50.712381-10.24-8.777143-1.950476-20.967619-3.900952-27.794286-15.60381l-60.464762-100.449524c-3.413333-6.339048-3.900952-13.653333-1.950476-19.992381 1.950476-6.339048 6.339048-12.190476 11.702857-16.579047 11.215238-8.289524 26.331429-8.289524 37.546667 0 20.967619 15.60381 55.588571 35.59619 80.944762 58.026666 1.950476 1.462857 3.900952 1.950476 5.851428 1.462858l76.556191-17.554286c3.900952-1.950476 11.215238-8.777143 3.413333-17.066667L285.257143 407.649524c-6.339048-5.36381-11.215238-19.504762 3.413333-25.84381 9.264762-4.388571 18.529524-9.752381 27.794286-13.653333 8.289524-4.388571 20.48-11.215238 32.182857-5.851429 78.506667 32.670476 157.013333 65.828571 235.52 98.499048 1.462857 0.487619 2.925714 0.487619 3.900952 0 48.761905-10.24 97.03619-22.430476 144.822858-36.08381 19.017143-4.87619 38.521905-4.87619 57.539047 0 29.257143 7.801905 49.249524 27.794286 56.56381 44.373334 6.339048 15.11619-1.462857 33.158095-24.868572 41.935238z" fill="#1774ff" p-id="29207"></path></svg>