<?xml version="1.0" standalone="no"?><!DOCTYPE svg PUBLIC "-//W3C//DTD SVG 1.1//EN" "http://www.w3.org/Graphics/SVG/1.1/DTD/svg11.dtd"><svg t="1730965163199" class="icon" viewBox="0 0 1024 1024" version="1.1" xmlns="http://www.w3.org/2000/svg" p-id="8848" xmlns:xlink="http://www.w3.org/1999/xlink" width="200" height="200"><path d="M556.01739713 108.89932422l26.51650429 37.12310601c30.75914498 43.48706704 41.89607679 91.74710486 36.06244584 142.12846302C541.69848481 287.62056316 464.27029227 287.62056316 386.31176964 288.15089325c-9.54594155-58.33630945 9.01561146-111.89964812 47.19937765-158.56869568 18.03122292-22.27386361 38.71409627-42.95673696 58.86663953-63.10928023 3.18198052-3.18198052 10.60660172-3.18198052 16.44023266-4.77297077l47.19937765 47.19937765z m-170.76628766 232.28457762L619.65700744 341.18390184c-0.53033009 21.74353352-1.06066017 45.60838739-0.53033009 68.41258107 0 64.70027048-0.53033009 129.93087104 0 195.16147161 1.06066017 28.63782464-6.36396103 50.91168825-32.88046533 60.45762979 15.90990258 11.66726189 33.9411255 21.21320344 47.19937765 35.53211576 22.27386361 23.33452378 29.69848481 54.09366876 30.22881489 85.38314383 2.12132034 51.97234842 1.06066017 103.94469683 1.06066018 154.85638508 0 1.06066017-0.53033009 2.65165043-1.59099026 5.83363094-23.86485387-15.37957249-46.66904756-30.75914498-69.47324125-46.13871747-19.09188309-12.72792206-37.6534361-25.98617421-57.27564928-38.18376619-8.48528137-5.30330086-12.19759198-11.1369318-11.66726189-21.21320343 0.53033009-41.89607679 0-83.79215357 0.53033009-126.74889053-16.44023266 0.53033009-31.28947507 1.59099026-49.32069799 2.65165043 0.53033009 21.74353352 1.06066017 46.66904756 1.06066017 71.06423151l0 57.27564928c0 4.24264069-2.12132034 10.60660172-5.83363094 12.19759197-44.01739713 30.2288149-88.56512434 58.86663953-134.17351173 89.62578452-0.53033009-5.83363094-1.06066017-9.54594155-0.53033009-14.31891232 1.59099026-55.68465902 1.06066017-111.36931804 3.7123106-167.05397706 2.65165043-34.47145558 16.97056275-64.70027048 47.72970773-84.85281374 9.01561146-5.83363094 20.15254326-9.54594155 31.28947507-15.37957249-29.69848481-10.60660172-37.12310601-32.88046533-36.06244584-61.51828996 1.06066017-82.7314934 0-166.52364697 0-250.31580054 2.12132034-4.24264069 2.65165043-9.01561146 2.12132034-12.72792206z" fill="#1776FF" p-id="8849"></path></svg>