<?xml version="1.0" standalone="no"?><!DOCTYPE svg PUBLIC "-//W3C//DTD SVG 1.1//EN" "http://www.w3.org/Graphics/SVG/1.1/DTD/svg11.dtd"><svg t="1724986852669" class="icon" viewBox="0 0 1024 1024" version="1.1" xmlns="http://www.w3.org/2000/svg" p-id="34564" xmlns:xlink="http://www.w3.org/1999/xlink" width="200" height="200"><path d="M810.9 177.2c-52.5-52.5-122.3-81.4-196.5-81.4v30c136.7 0 247.9 111.2 247.9 247.9h30c0-74.2-28.9-144-81.4-196.5z" p-id="34565" fill="#1776ff"></path><path d="M759.4 384.1h30c0-102.2-83.2-185.4-185.4-185.4v30c85.7 0 155.4 69.7 155.4 155.4zM616 400.1c18.3 7.3 39.9 3.6 54.7-11.2 19.8-19.8 19.8-51.8 0-71.6-19.8-19.8-51.8-19.8-71.6 0-14.8 14.8-18.5 36.5-11.2 54.7l-31.5 31.5-260.7-260.7c-107.1 153.9-92 367.1 45.2 504.4s350.4 152.3 504.4 45.2L584.5 431.6l31.5-31.5zM460.3 761.7c-52.7-21.4-100-52.8-140.5-93.3-20.1-20.1-37.9-41.9-53.5-65.2L221.9 697 109.1 935.7h451.4l-78.4-165.8c-7.4-2.6-14.6-5.3-21.8-8.2z" p-id="34566" fill="#1776ff"></path></svg>