<?xml version="1.0" standalone="no"?><!DOCTYPE svg PUBLIC "-//W3C//DTD SVG 1.1//EN" "http://www.w3.org/Graphics/SVG/1.1/DTD/svg11.dtd"><svg t="1724986328382" class="icon" viewBox="0 0 1024 1024" version="1.1" xmlns="http://www.w3.org/2000/svg" p-id="22018" xmlns:xlink="http://www.w3.org/1999/xlink" width="200" height="200"><path d="M711.850667 895.146667c51.541333 0 101.290667 22.784 137.813333 39.765333 7.765333 3.584 15.530667 7.168 23.466667 10.581333l9.045333 2.816c36.693333 10.752 75.093333 14.08 112.896 9.642667l2.901333 0.085333c13.738667 1.706667 24.490667 12.714667 25.856 26.453334a29.866667 29.866667 0 0 1-25.514666 33.28l-9.728 1.024a290.133333 290.133333 0 0 1-115.456-13.141334l-5.290667-2.218666-18.176-8.277334c-38.570667-17.92-91.818667-42.410667-146.346667-39.509333a242.773333 242.773333 0 0 0-62.634666 21.845333l-5.12 2.218667c-60.245333 26.112-141.141333 59.050667-225.450667 19.541333-91.904-43.178667-144.554667-59.050667-229.376-18.176a711.168 711.168 0 0 1-147.370667 42.496l-2.304 0.341334H28.757333l-2.986666-0.085334a29.354667 29.354667 0 0 1-25.258667-25.088 29.952 29.952 0 0 1 23.637333-34.56l3.413334-0.682666c0.426667 0 0.853333 0.256 1.109333 0.256a28.416 28.416 0 0 0 4.693333-0.426667l16.810667-3.072a712.362667 712.362667 0 0 0 130.56-39.424l7.253333-3.413333c80.64-36.522667 132.864-20.394667 222.122667 21.589333 86.784 40.789333 169.813333 4.608 230.570667-21.76 19.882667-10.154667 40.96-17.493333 62.549333-21.76l8.618667-0.256zM483.242667 401.493333v215.04A30.208 30.208 0 0 0 512 646.4h1.109333a29.013333 29.013333 0 0 0 27.648-30.122667V406.698667l293.376 164.864v0.768l66.218667 40.106666a30.805333 30.805333 0 0 1 11.52 39.082667L818.176 855.04a290.986667 290.986667 0 0 0-114.346667-19.626667l-9.386666 1.536a264.277333 264.277333 0 0 0-71.936 24.746667l-5.717334 2.474667c-55.296 23.893333-117.333333 49.066667-179.2 19.968-79.274667-37.205333-144.896-62.037333-229.802666-36.437334l-95.317334-195.413333a31.061333 31.061333 0 0 1 7.082667-36.693333l363.690667-214.186667zM512.085333 0c15.872 0 28.672 13.397333 28.672 30.037333v78.336h95.914667c10.496 1.024 18.773333 9.557333 19.2 20.053334v136.533333H768.853333c36.096 0 65.28 30.634667 65.28 68.266667v169.813333L521.386667 326.826667a27.648 27.648 0 0 0-28.586667-0.170667l-302.933333 178.346667V333.397333c0-37.717333 29.098667-68.266667 65.109333-68.266666h113.152V128.512l0.170667-2.56a19.456 19.456 0 0 1 19.029333-17.493333h95.829333V30.122667c0-16.64 12.885333-30.122667 28.842667-30.122667z" p-id="22019" fill="#1776ff"></path></svg>