<?xml version="1.0" standalone="no"?><!DOCTYPE svg PUBLIC "-//W3C//DTD SVG 1.1//EN" "http://www.w3.org/Graphics/SVG/1.1/DTD/svg11.dtd"><svg t="1724986564818" class="icon" viewBox="0 0 1024 1024" version="1.1" xmlns="http://www.w3.org/2000/svg" p-id="25990" xmlns:xlink="http://www.w3.org/1999/xlink" width="200" height="200"><path d="M619.598143 386.131934c0 23.736656-19.94282 42.915672-44.535607 42.915673H252.871848c-24.592787 0-44.401311-19.179016-44.401312-42.915673V158.552131c0-23.761836 19.900852-43.100328 44.401312-43.100328h322.324983c24.592787 0 44.56918 19.271344 44.569181 43.100328v227.57141h-0.167869z m362.856918-192.587541C949.107913 164.679344 892.53611 116.417049 875.329553 99.714098c-9.736393-9.492984-32.01259-14.940328-46.902558 0.184656-14.201705 14.445115-8.057705 33.263213 2.467673 42.915672 14.915148 13.714885 48.497311 40.850885 67.676327 61.204984-15.972721 18.994361-42.244197 39.004328-58.695344 56.58859-2.123541 2.157115-2.031213 4.733902-2.031213 5.934164 0.100721 9.963016 0.478426 16.937967 0.377705 21.176656-0.159475 3.659541 4.33941 4.918557 6.337049 4.918557h83.321705c5.522885 0 6.89941 5.539672 6.89941 5.539672v518.127213c0 29.083279-16.266492 38.15659-32.961049 38.15659-16.62741 0-34.413115-9.165639-34.413115-38.15659V392.620066c0-38.4-4.431738-55.824787-49.311475-58.132984-10.928262-0.646295-55.010623-0.083934-78.948722 0V64.470033C739.145946 28.764328 709.248504 0 672.359323 0H157.404831C120.591192 0 90.685356 28.772721 90.685356 64.461639v866.119345H52.553946c-15.292852 0-27.396197 11.776-27.396196 26.498098v39.071475C25.15775 1010.805508 37.386995 1024 52.553946 1024h723.414033c15.108197 0 27.463344-13.194492 27.463344-27.849443v-39.071475c0-14.722098-12.355148-26.506492-27.463344-26.506492h-37.006689V396.8h45.996066c16.384 0 17.819279 15.762885 17.819279 15.762885v407.870951c0 104.17941 89.088 105.136262 98.983869 105.136262 13.328787 0 97.028197 0 97.028196-103.843672V222.42623c0.050361 0 0.646295-14.075803-16.333639-28.89023z" fill="#1776ff" p-id="25991"></path></svg>