<?xml version="1.0" standalone="no"?><!DOCTYPE svg PUBLIC "-//W3C//DTD SVG 1.1//EN" "http://www.w3.org/Graphics/SVG/1.1/DTD/svg11.dtd"><svg t="1726045738770" class="icon" viewBox="0 0 1024 1024" version="1.1" xmlns="http://www.w3.org/2000/svg" p-id="4285" xmlns:xlink="http://www.w3.org/1999/xlink" width="200" height="200"><path d="M171.273 567.15h102.062v-31.938c-32.148 0-63.833-0.754-95.449 0.352-13.773 0.482-20.345-3.988-24.591-16.963-11.22-34.228-23.702-68.064-36.524-104.483h156.323v-32.409c-46.363 0-93.067-1.387-139.616 0.613-22.807 0.975-32.952-6.874-39.042-28.148-8.643-30.269-20.445-59.613-32.233-93.178 62.789 0 121.833 1.005 180.793-0.623 16.431-0.472 32.666-8.642 48.951-13.406 44.765-13.074 88.746-30.711 134.405-38.389 97.409-16.38 193.988-7.969 287.964 24.059 5.015 1.698 10.903 2.512 14.742 5.708 32.022 26.771 70.114 23.153 107.825 22.751 45.001-0.442 90.017-0.101 139.073-0.101-13.898 39.404-26.019 75.973-40.269 111.668-2.04 5.115-14.265 8.542-21.837 8.673-49.337 0.754-98.689 0.372-149.304 0.372v31.143h157.288c-15.194 42.921-29.133 82.305-43.488 122.863H764.757v31.707h101.996c-14.124 39.996-26.454 76.627-40.544 112.563-1.794 4.563-13.194 8.432-19.521 7.648-34.766-4.412-63.029 9.254-91.73 26.711-57.407 34.9-116.563 66.908-174.181 101.479-16.296 9.748-28.345 10.742-45.208 0.521-60.527-36.629-122.712-70.525-183.165-107.287-24.36-14.793-48.488-24.973-77.169-20.893-15.597 2.201-23.752-3.789-28.59-19.385-10.153-32.7-22.388-64.766-35.372-101.628z m453.985 16.008c-5.301-29.504-11.547-54.467-13.511-79.741-0.885-11.266 3.938-25.696 11.28-34.339 16.225-19.074 35.68-35.414 58.342-57.211-30.028-4.312-53.252-8.512-76.657-10.743-18.46-1.769-30.108-8.984-36.997-27.214-8.285-21.927-19.752-42.669-32.475-69.451-14.33 28.791-24.907 52.779-38.167 75.179-4.884 8.281-15.315 16.179-24.611 18.37-25.917 6.1-52.558 9.125-81.45 13.788 20.38 21.013 36.871 39.453 54.99 56.125 11.688 10.764 15.903 20.923 11.868 37.112-5.969 24.038-8.622 48.891-13.406 77.702 27.817-14.129 50.066-27.072 73.656-36.68 9.663-3.93 23.627-4.01 33.224-0.041 24.109 9.97 46.861 23.257 73.914 37.144z" fill="#f4ea29" p-id="4286"></path></svg>