<?xml version="1.0" standalone="no"?><!DOCTYPE svg PUBLIC "-//W3C//DTD SVG 1.1//EN" "http://www.w3.org/Graphics/SVG/1.1/DTD/svg11.dtd"><svg t="1724986493546" class="icon" viewBox="0 0 1024 1024" version="1.1" xmlns="http://www.w3.org/2000/svg" p-id="24800" xmlns:xlink="http://www.w3.org/1999/xlink" width="200" height="200"><path d="M628.736 476.672c-53.248 69.12-62.464 148.48-62.464 230.912-33.28-6.144-57.344-24.576-78.336-48.128-53.248-58.368-105.984-116.224-159.232-174.592-30.208-32.768-59.904-65.536-91.648-100.352 72.192-19.968 117.76-64.512 137.216-138.752 86.016 77.824 169.984 154.112 254.464 230.912zM896 673.28c-1.024 65.024-7.68 116.224-31.232 163.84-8.192 15.872-18.432 31.744-30.72 45.056-29.696 31.232-67.072 31.744-95.744 0.512-15.36-16.896-29.184-37.376-36.864-58.88-34.304-91.136-34.304-182.784-1.024-274.432 5.632-15.36 13.824-30.208 23.552-43.52 36.864-52.224 86.528-52.224 123.904-0.512 22.016 30.208 33.28 65.024 39.936 100.864 4.608 26.112 6.656 53.248 8.192 67.072z m-110.08-28.16c7.68-20.992 14.336-36.352 18.944-52.736 2.048-7.168 2.048-20.48-1.024-21.504-9.728-3.584-20.992-5.12-31.232-3.584-4.096 0.512-10.24 11.264-9.216 15.872 5.632 19.456 13.824 37.888 22.528 61.952z m0 81.408c-7.68 20.992-14.336 36.864-19.456 52.736-2.048 6.656-3.072 18.944 0 20.48 8.704 4.096 19.456 6.656 29.184 5.632 7.68-0.512 16.896-5.632 12.8-17.408-6.656-18.432-13.824-37.376-22.528-61.44z m-19.968-54.784c-7.168-20.48-14.336-39.424-21.504-58.88-1.536 0-2.56 0-4.096 0.512-3.072 18.944-6.656 38.4-10.24 58.368h35.84z m75.776 0c-4.096-20.48-7.168-39.424-10.752-58.368h-4.096c-6.656 18.944-13.824 37.888-20.992 57.856 11.776 0.512 22.016 0.512 35.84 0.512z m-100.864 87.04c1.536-0.512 2.56-0.512 4.096-1.024 6.656-18.944 13.824-37.888 20.48-56.832h-35.328c3.584 20.48 7.168 38.912 10.752 57.856z m65.024-58.368c7.168 20.48 14.336 39.424 21.504 58.368 1.536 0 3.072-0.512 4.096-0.512 3.072-18.944 6.656-37.888 9.728-57.856h-35.328zM388.096 644.608c6.144-14.848 10.24-25.088 14.336-35.328l4.608-1.536c4.608 9.728 12.288 19.968 12.8 29.696 0 11.264-7.168 22.528-11.264 34.816h33.28v-17.408c17.92 16.896 35.84 33.28 52.736 50.176 2.048 2.048 2.56 7.168 2.56 10.752-3.584 45.056-11.264 89.6-33.792 129.536-9.728 17.408-23.552 33.792-38.912 47.104-23.04 18.944-49.664 19.456-72.192 0-16.896-15.36-33.28-33.792-42.496-54.784-43.52-100.352-42.496-201.216-1.024-302.08l4.608-9.216c1.536-2.56 3.072-4.608 6.144-9.728 15.872 17.408 33.28 32.768 45.568 51.2 7.168 10.752 6.144 27.136 9.728 40.96 3.072 10.24 7.68 20.48 13.312 35.84z m0.512 81.92c-7.68 20.48-13.824 35.84-18.944 51.2-2.56 8.192-10.752 17.408 1.536 25.088 12.8 8.192 24.576 7.68 35.84-1.536 3.072-2.56 5.12-9.216 3.584-12.8-6.144-18.944-13.312-37.888-22.016-61.952zM332.8 671.744h35.84c-7.68-20.48-14.336-39.424-21.504-58.368-1.536 0-2.56 0.512-4.096 0.512-3.072 18.432-6.656 37.376-10.24 57.856z m10.752 87.04h3.584c7.168-19.456 13.824-38.4 20.992-57.856H332.8c3.584 20.48 7.168 39.424 10.752 57.856z m65.024-57.856c7.168 19.968 14.336 38.912 21.504 57.856 1.536 0 2.56-0.512 4.096-0.512 3.072-18.432 6.656-37.376 10.24-57.344h-35.84z" p-id="24801" fill="#1776ff"></path><path d="M128 276.48c-0.512-69.632 68.096-138.24 137.728-138.24 46.08 0 79.36 30.208 82.944 76.288C354.816 289.28 274.944 367.616 201.216 358.4 156.672 353.28 128 321.024 128 276.48z m54.272-2.048c0 20.992 14.848 33.28 35.84 30.208 34.816-5.12 71.68-42.496 76.288-76.8 3.072-21.504-9.728-35.84-30.72-35.328-36.864 0.512-81.408 45.568-81.408 81.92zM719.36 904.704c-33.792 4.096-56.32-10.752-74.24-33.792-26.112-34.304-38.4-74.752-45.056-116.736-10.752-69.632-8.192-138.24 18.944-203.264 9.216-22.528 24.064-43.52 39.936-62.976 14.336-17.408 35.328-23.552 60.416-19.456-55.296 63.488-69.632 139.264-69.632 218.624-0.512 78.336 13.824 153.6 69.632 217.6zM280.576 473.088c6.144 6.656 12.288 13.312 16.896 18.432-64.512 142.336-67.072 279.04 19.968 413.184-15.36 3.584-32.768 1.024-45.568-11.264-16.384-15.872-33.792-33.792-43.008-54.272-44.032-101.376-44.032-203.776-0.512-305.664 10.24-25.088 26.112-46.592 52.224-60.416z" p-id="24802" fill="#1776ff"></path></svg>