<?xml version="1.0" standalone="no"?><!DOCTYPE svg PUBLIC "-//W3C//DTD SVG 1.1//EN" "http://www.w3.org/Graphics/SVG/1.1/DTD/svg11.dtd"><svg t="1730965084205" class="icon" viewBox="0 0 1024 1024" version="1.1" xmlns="http://www.w3.org/2000/svg" p-id="8497" xmlns:xlink="http://www.w3.org/1999/xlink" width="200" height="200"><path d="M476.672 680.96c0-76.8 30.208-107.52 110.592-112.64V423.936c2.56-2.048 3.072-3.584 4.096-3.584 56.32 0 112.64-1.536 169.472 0 30.208 0.512 55.296 23.04 64 53.248 7.68 27.136 13.312 55.296 21.504 82.432 2.048 6.656 8.192 13.824 14.336 17.408 12.8 8.192 26.624 13.824 40.448 20.992 14.848 7.68 22.528 19.456 22.528 36.352v122.368c0 17.92-9.728 28.672-25.088 36.352-5.632 3.072-11.264 9.216-12.288 14.848-11.264 60.416-56.32 100.352-112.128 99.328-58.88-1.024-102.4-42.496-110.592-104.96 0-1.536-1.024-3.072-2.048-5.632h-109.056c-5.632 50.688-29.184 89.088-79.872 104.96-50.688 15.872-92.16-1.536-125.952-43.008-20.992 26.112-46.08 43.008-78.848 47.104-58.88 7.68-114.688-32.768-123.904-92.16-1.536-10.752-3.072-18.432-16.384-22.528-18.432-5.632-24.064-22.528-22.528-40.96 1.536-23.04-7.168-49.664 20.992-62.976 7.68-3.584 16.896-3.584 25.6-3.584 86.016-0.512 172.032 0 258.048 0 22.016 1.024 44.544 1.024 67.072 1.024z m187.392-76.288h116.736c-9.216-37.888-18.432-73.728-27.648-109.568h-89.6c0.512 36.864 0.512 72.192 0.512 109.568z m-411.648 132.096c-30.72 0.512-55.296 25.088-55.296 55.808 0 30.208 25.6 55.808 55.808 55.808 31.232 0 56.32-25.6 55.808-57.344-0.512-31.232-25.088-54.784-56.32-54.272z m186.88 0c-31.232 0-55.296 24.064-55.296 55.296 0 30.72 24.064 55.808 54.784 56.32 30.72 0.512 57.344-26.112 56.832-56.832-1.024-30.72-25.6-54.784-56.32-54.784z m334.848 0c-31.232 0-55.296 24.064-55.296 55.296 0 30.72 24.064 55.808 54.784 56.32 30.72 0.512 57.344-25.6 56.32-56.832 0-30.72-24.576-54.784-55.808-54.784z" p-id="8498" fill="#1776FF"></path><path d="M361.472 501.76c25.6 34.304 50.176 67.072 76.288 102.4H142.848c14.848-19.968 28.672-38.912 43.008-57.344 7.168-8.704 6.656-14.848-0.512-24.064-26.624-33.792-53.248-68.608-81.408-104.448 120.32-93.184 240.128-185.856 361.472-279.552 15.36 19.968 30.208 39.424 45.568 58.88C439.808 252.928 369.152 307.2 296.96 363.008c14.848 19.456 29.696 38.4 45.568 58.88 71.68-55.296 142.336-110.08 214.016-165.376 15.36 19.968 30.208 38.912 45.568 58.88-80.384 62.464-160.256 123.904-240.64 186.368z" p-id="8499" fill="#1776FF"></path></svg>