<?xml version="1.0" standalone="no"?><!DOCTYPE svg PUBLIC "-//W3C//DTD SVG 1.1//EN" "http://www.w3.org/Graphics/SVG/1.1/DTD/svg11.dtd"><svg t="1724984758049" class="icon" viewBox="0 0 1024 1024" version="1.1" xmlns="http://www.w3.org/2000/svg" p-id="8612" xmlns:xlink="http://www.w3.org/1999/xlink" width="200" height="200"><path d="M7.8 184.7l204.3 803.8h120.2L232.6 598s122-138.6 250.2-104.1c0 0 40 14.4 76.2 48.6 0 0 88.1 102.5 194.5 7.9 0 0 77.9-62.8 154.4-170.5 0 0 60.3-78.3 87-116.9 0 0 15.8-25.2 18.6-32.7 0 0 8.5-22.8-19.6-21.8l-4.9 1S859.4 279 715.3 270.9c0 0-119.9 15.5-230.7-151.6 0 0-64.2-122.8-191.6-76.3 0 0-70.7 21.2-183.8 104.1L7.8 184.7z" fill="#1776ff" p-id="8613"></path></svg>