<svg width="28" height="28" viewBox="0 0 28 28" fill="none" xmlns="http://www.w3.org/2000/svg">
<rect width="28" height="28" rx="6" fill="#E6FAFF"/>
<g clip-path="url(#clip0_456_7959)">
<path d="M7 7H21V21H7V7Z" fill="white" fill-opacity="0.01"/>
<path d="M19.25 8.75C19.5593 8.75 19.8559 8.87287 20.0746 9.09157C20.2933 9.31028 20.4162 9.6069 20.4162 9.9162V18.0838C20.4162 18.3931 20.2933 18.6897 20.0746 18.9084C19.8559 19.1271 19.5593 19.25 19.25 19.25H8.75C8.44071 19.25 8.14408 19.1271 7.92537 18.9084C7.70667 18.6897 7.5838 18.3931 7.5838 18.0838V9.9162C7.5838 9.6069 7.70667 9.31028 7.92537 9.09157C8.14408 8.87287 8.44071 8.75 8.75 8.75H19.25ZM19.25 9.9162H8.75V18.0838H19.25V9.9162ZM17.5 15.75C17.6501 15.7513 17.794 15.8104 17.9017 15.915C18.0093 16.0196 18.0726 16.1617 18.0783 16.3117C18.084 16.4617 18.0316 16.6082 17.9321 16.7206C17.8327 16.833 17.6937 16.9028 17.5441 16.9155H13.7088C13.5587 16.9142 13.4148 16.8551 13.3071 16.7505C13.1995 16.6459 13.1362 16.5038 13.1305 16.3538C13.1249 16.2038 13.1772 16.0573 13.2767 15.9449C13.3761 15.8325 13.5151 15.7627 13.6647 15.75H13.7088H17.5ZM10.8409 11.7775L10.8801 11.8069L12.9213 13.5569C12.9821 13.6091 13.0315 13.6732 13.0664 13.7453C13.1013 13.8174 13.1211 13.8959 13.1243 13.9759C13.1276 14.056 13.1144 14.1358 13.0855 14.2105C13.0566 14.2853 13.0126 14.3532 12.9563 14.4102L12.9213 14.4424L10.8801 16.1924C10.766 16.2911 10.618 16.3417 10.4673 16.3336C10.3166 16.3255 10.1749 16.2593 10.0721 16.1489C9.96918 16.0385 9.91311 15.8925 9.91563 15.7416C9.91816 15.5907 9.97908 15.4467 10.0856 15.3398L10.1199 15.3069L11.6459 14L10.1199 12.6931C10.0089 12.5976 9.93782 12.4638 9.92071 12.3184C9.9036 12.173 9.94171 12.0264 10.0275 11.9077L10.0569 11.8699C10.1524 11.7589 10.2862 11.6878 10.4316 11.6707C10.577 11.6536 10.7236 11.6917 10.8423 11.7775H10.8409Z" fill="#2FA9E6"/>
</g>
<defs>
<clipPath id="clip0_456_7959">
<rect width="14" height="14" fill="white" transform="translate(7 7)"/>
</clipPath>
</defs>
</svg>
