<?xml version="1.0" standalone="no"?><!DOCTYPE svg PUBLIC "-//W3C//DTD SVG 1.1//EN" "http://www.w3.org/Graphics/SVG/1.1/DTD/svg11.dtd"><svg t="1715671525282" class="icon" viewBox="0 0 1024 1024" version="1.1" xmlns="http://www.w3.org/2000/svg" p-id="8696" xmlns:xlink="http://www.w3.org/1999/xlink" width="200" height="200"><path d="M634.993778 1.080889L358.4 71.054222 56.888889 0v798.151111l302.023111 75.036445 100.750222-23.267556c-19.512889-23.893333-34.133333-51.2-37.319111-64.853333l-29.411555 9.102222V132.551111l201.272888-52.167111V417.564444a284.273778 284.273778 0 0 1 68.266667-13.824V79.872l199.566222 49.607111v340.935111l5.973334 4.209778c25.6 18.545778 62.236444 74.922667 62.236444 95.118222V76.117333l-295.253333-75.093333zM125.098667 86.186667l199.623111 47.047111v661.105778l-199.623111-49.550223V86.186667z" fill="#1776FF" p-id="8697"></path><path d="M681.016889 573.326222a102.4 102.4 0 0 0 0 204.8 102.4 102.4 0 0 0 0-204.8z m0 136.533334a34.133333 34.133333 0 1 1 0.170667-68.266667 34.133333 34.133333 0 0 1-0.170667 68.266667z m0-272.952889a235.52 235.52 0 0 0-235.008 235.406222v6.144c0 65.251556 36.636444 140.515556 108.885333 223.516444a929.450667 929.450667 0 0 0 104.732445 102.513778l21.390222 17.351111 21.390222-17.351111c2.161778-1.706667 53.191111-43.178667 104.789333-102.513778 72.248889-83.057778 108.885333-158.264889 108.885334-223.573333v-6.087111A235.52 235.52 0 0 0 680.96 436.906667z m166.912 241.550222c0 87.096889-105.927111 200.078222-166.798222 254.520889a889.856 889.856 0 0 1-74.922667-75.832889c-60.245333-69.290667-92.103111-131.072-92.103111-178.688v-6.144a167.253333 167.253333 0 0 1 166.912-167.139556 167.253333 167.253333 0 0 1 166.912 167.139556v6.144z" fill="#1776FF" p-id="8698"></path></svg>