<?xml version="1.0" standalone="no"?><!DOCTYPE svg PUBLIC "-//W3C//DTD SVG 1.1//EN" "http://www.w3.org/Graphics/SVG/1.1/DTD/svg11.dtd"><svg t="1713753996093" class="icon" viewBox="0 0 1024 1024" version="1.1" xmlns="http://www.w3.org/2000/svg" p-id="1490" xmlns:xlink="http://www.w3.org/1999/xlink" width="200" height="200"><path d="M738.607654 691.203845c25.064741 8.184915 43.47955 27.110719 63.941338 42.45656 27.110719 20.972783 68.54429 18.926804 96.167005-2.045978 7.672921-5.626942 15.345841-12.275873 24.041751-15.345841 13.299862-4.603952 28.645703 2.557974 36.319624 14.322851 8.183915 13.299862 6.649931 29.669693-4.092958 40.410582-26.08773 26.599725-57.802402 41.434571-94.63302 43.991545-43.47955 3.069968-81.333158-10.741889-113.04883-40.409582-25.575735-24.042751-54.732433-33.249656-87.982089-20.973783-12.787868 4.603952-24.041751 13.811857-34.78364 22.507767-30.691682 26.599725-65.476322 40.410582-105.886904 38.875598-34.78364-1.022989-65.475322-13.299862-92.075047-36.317625-13.811857-12.276873-27.622714-24.042751-46.037523-28.134708-25.576735-5.626942-49.107492-2.045979-69.56928 14.834846-19.948793 16.368831-38.875598 33.249656-63.939338 41.433571-57.292407 17.903815-108.444877 7.160926-152.436422-33.76065-13.811857-12.788868-14.834846-33.249656-3.069968-46.549518 12.276873-14.322852 32.738661-15.857836 47.572507-3.069969 20.461788 18.415809 43.991545 28.646703 71.103264 23.530757 13.299862-2.556974 27.109719-8.183915 37.852608-16.368831 19.437799-14.322852 36.829619-31.714672 61.383365-39.899587-3.579963-11.764878-7.160926-22.506767-10.229894-33.75965-29.669693-111.002851 32.737661-232.234596 140.670544-272.646178 13.299862-5.114947 27.110719-8.69591 40.921576-11.764878 8.184915-1.534984 9.719899-4.603952 9.719899-12.276873V39.515591c0-20.972783 8.183915-33.760651 25.064741-38.364603 6.137936-1.534984 13.299862-1.534984 19.437799 0 79.287179 18.414809 158.062364 36.829619 236.837548 55.245428 36.830619 8.69591 73.149243 16.879825 109.978862 25.575735 25.576735 6.138936 36.830619 29.157698 25.576735 50.129482-5.626942 10.230894-15.345841 14.834846-26.599725 17.904814-85.425116 22.506767-170.338237 45.014534-255.764352 68.033296-19.949793 5.114947-39.899587 10.741889-59.849381 15.856836-6.649931 1.534984-8.183915 4.603952-8.183915 10.741889 0.511995 38.876598 0.511995 77.2412 0 116.117798 0 7.672921 2.557974 10.741889 10.229894 12.276873 96.169005 19.437799 168.294258 92.075047 185.174083 187.731056 7.161926 39.899587 4.092958 79.799174-9.718899 118.162777l-3.069968 9.207905c-1.021989 0.510995-1.021989 1.533984-1.02199 3.069968z m-50.641476-106.908893c-2.557974-9.207905-7.161926-27.111719-11.764878-45.015534-1.534984-6.649931-5.626942-8.183915-12.276873-8.183916-94.122026 0.510995-187.731057 0-281.853082 0-6.137936 0-9.718899 1.533984-11.764878 7.672921-18.414809 47.572508-16.369831 93.609031 6.649931 139.13556 1.533984 2.557974 5.114947 5.626942 7.67292 6.138936 30.691682 5.625942 56.779412 19.949793 79.799174 40.409582 36.829619 33.249656 80.821163 33.249656 115.604804 1.023989 23.019762-20.972783 49.106492-35.807629 80.310168-41.433571 3.069968-0.511995 6.649931-2.557974 7.672921-4.603952 14.834846-27.111719 20.972783-55.756423 19.949793-95.145015zM559.059513 76.34521v90.029068c59.337386-15.857836 117.651782-31.203677 175.966178-47.061513v-2.045979c-58.314396-13.299862-116.628793-27.110719-175.966178-40.921576z m52.687454 387.226991c-48.083502-36.829619-131.974634-35.295635-176.478173 0h176.478173zM361.098562 889.165796c37.341613 0.511995 70.591269 12.787868 98.724978 38.364603 20.972783 19.437799 43.991545 31.714672 73.660238 28.133708 16.880825-2.045979 31.715672-8.69591 43.991544-19.949793 17.903815-16.879825 37.341613-31.202677 61.384365-38.363603 56.779412-17.39282 107.931883-6.649931 151.412432 34.271645 14.322852 13.299862 14.833846 34.272645 2.556974 47.572508-12.787868 13.811857-32.225666 14.834846-47.571508 2.045979-15.345841-13.299862-31.714672-22.506767-52.687454-24.041752-20.972783-1.534984-40.411582 3.579963-56.779412 17.39182-19.438799 16.369831-38.365603 32.737661-63.429344 40.922577-54.223439 17.39182-103.840925 8.184915-147.321475-29.156698-17.39182-14.834846-34.272645-28.134709-58.314396-29.157699-20.460788-1.022989-38.875598 3.579963-55.245428 15.857836-3.579963 3.068968-7.160926 6.137936-10.741889 8.69591-14.833846 11.764878-34.272645 10.741889-46.549518-3.069968-12.275873-13.299862-11.252884-33.249656 2.046979-46.549518 28.645703-28.133709 63.429343-42.455561 104.862914-42.967555z" p-id="1491"></path></svg>